<svg id="Capa_1" enable-background="new 0 0 510 510" height="512" viewBox="0 0 510 510" width="512" xmlns="http://www.w3.org/2000/svg" xmlns:xlink="http://www.w3.org/1999/xlink"><linearGradient id="SVGID_1_" gradientUnits="userSpaceOnUse" x1="136.483" x2="440.496" y1="136.483" y2="440.496"><stop offset="0" stop-color="#18cffc"/><stop offset="1" stop-color="#4a98f7"/></linearGradient><linearGradient id="lg1"><stop offset="0" stop-color="#cdec7a"/><stop offset=".34" stop-color="#c1ea76"/><stop offset=".9563" stop-color="#a1e66b"/><stop offset="1" stop-color="#9ee66a"/></linearGradient><linearGradient id="SVGID_2_" gradientUnits="userSpaceOnUse" x1="92.947" x2="494.722" xlink:href="#lg1" y1="268.277" y2="553.355"/><linearGradient id="SVGID_3_" gradientUnits="userSpaceOnUse" x1="174.893" x2="576.669" xlink:href="#lg1" y1="152.787" y2="437.864"/><linearGradient id="SVGID_4_" gradientUnits="userSpaceOnUse" x1="394.214" x2="574.262" xlink:href="#lg1" y1="276.752" y2="308.427"/><linearGradient id="SVGID_5_" gradientUnits="userSpaceOnUse" x1="422.759" x2="602.807" xlink:href="#lg1" y1="114.496" y2="146.171"/><linearGradient id="lg2"><stop offset="0" stop-color="#0469bc" stop-opacity="0"/><stop offset="1" stop-color="#0469bc"/></linearGradient><linearGradient id="SVGID_6_" gradientUnits="userSpaceOnUse" x1="301.885" x2="652.395" xlink:href="#lg2" y1="282" y2="-369.899"/><linearGradient id="SVGID_7_" gradientUnits="userSpaceOnUse" x1="336.409" x2="121.1" xlink:href="#lg2" y1="478.249" y2="262.941"/><linearGradient id="SVGID_8_" gradientUnits="userSpaceOnUse" x1="444.414" x2="222.907" xlink:href="#lg2" y1="347.563" y2="126.057"/><linearGradient id="SVGID_9_" gradientUnits="userSpaceOnUse" x1="373.541" x2="240.174" xlink:href="#lg2" y1="380.851" y2="247.484"/><linearGradient id="SVGID_10_" gradientUnits="userSpaceOnUse" x1="471.304" x2="354.938" xlink:href="#lg2" y1="437.697" y2="321.331"/><linearGradient id="lg3"><stop offset="0" stop-color="#8a7889"/><stop offset="1" stop-color="#6e566e"/></linearGradient><linearGradient id="SVGID_11_" gradientUnits="userSpaceOnUse" x1="224.446" x2="285.549" xlink:href="#lg3" y1="262.301" y2="262.301"/><linearGradient id="SVGID_12_" gradientUnits="userSpaceOnUse" x1="168.705" x2="341.29" xlink:href="#lg3" y1="160.051" y2="160.051"/><linearGradient id="SVGID_13_" gradientUnits="userSpaceOnUse" x1="275.303" x2="404.98" xlink:href="#lg3" y1="320.116" y2="320.116"/><linearGradient id="SVGID_14_" gradientUnits="userSpaceOnUse" x1="105.015" x2="234.692" xlink:href="#lg3" y1="320.116" y2="320.116"/><g><g><path d="m499.272 255c0 52.689-5.252 101.647-32.63 142.289-45.801 67.99-123.499 112.711-211.642 112.711-140.833 0-255-114.167-255-255 0-38.873 8.698-75.714 24.254-108.684 12.623-26.753 36.292-44.427 56.963-65.099 25.597-25.597 50.081-52.307 84.645-65.204 27.747-10.353 57.781-16.013 89.138-16.013 78.177 0 148.137 35.179 194.913 90.571 6.282 7.439 8.146 15.243 13.556 23.375 5.547 8.338 14.616 17.022 19.168 26.011 9.451 18.664 16.674 38.648 21.32 59.601 3.956 17.85-4.685 36.402-4.685 55.442z" fill="url(#SVGID_1_)"/><g><path d="m231.172 265.619 9.871 9.871c3.611 3.611 5.639 8.508 5.639 13.614 0 10.633 8.62 19.253 19.253 19.253 11.089 0 20.078 8.989 20.078 20.078 0 14.419-3.008 28.679-8.833 41.868l-35.542 80.488c-4.865 11.018-19.279 13.713-27.796 5.196-12.413-12.413-19.387-29.249-19.387-46.804v-9.362c0-24.407-9.696-47.815-26.954-65.073l-1.052-1.052c-16.241-16.241-25.366-38.27-25.366-61.239v-3.356c0-15.933 12.916-28.849 28.849-28.849 22.97.001 44.999 9.126 61.24 25.367z" fill="url(#SVGID_2_)"/><path d="m167.298 15.489c-63.844 23.386-115.727 71.572-143.99 132.891-3.35 7.267-5.008 15.2-5.008 23.202 0 14.904 5.921 29.199 16.46 39.738l5.212 5.212c23.355 23.355 55.032 36.476 88.061 36.476 4.934 0 8.934-4 8.934-8.934 0-4.934-4-8.934-8.934-8.934h-27.464c-12.667 0-22.935-10.268-22.935-22.935 0-12.667 10.268-22.935 22.935-22.935h21.451c25.721 0 50.388-10.218 68.576-28.405l33.12-33.12c7.212-7.212 16.994-11.264 27.193-11.264 14.755 0 28.209-8.442 34.627-21.727 7.867-16.282-3.996-35.188-22.079-35.188h-42.733c-12.564 0-22.748-10.185-22.748-22.748-.001-15.857-15.79-26.782-30.678-21.329z" fill="url(#SVGID_3_)"/></g><g><path d="m504.064 200.057c-3.522-16.035-17.859-27.377-34.277-27.377h-35.947-19.215c-32.659 0-59.135 26.476-59.135 59.135v7.195c0 28.686 23.254 51.941 51.94 51.941 14.586 0 26.409 11.824 26.409 26.409v68.964c0 17.971 23.334 25.13 33.321 10.189 20.755-31.049 34.873-66.914 40.328-105.562 1.652-11.741 2.512-23.751 2.512-35.951 0-18.866-2.05-37.248-5.936-54.943z" fill="url(#SVGID_4_)"/><path d="m482.62 139.93h-76.17c-13.625 0-24.67-11.045-24.67-24.67 0-13.625 11.045-24.67 24.67-24.67h43.48c12.71 15.05 23.71 31.6 32.69 49.34z" fill="url(#SVGID_5_)"/></g><path d="m369.069 26.893c17.199 34.325 26.893 73.062 26.893 114.069 0 140.833-114.167 255-255 255-41.007 0-79.744-9.694-114.069-26.893 41.868 83.56 128.281 140.931 228.107 140.931 140.833 0 255-114.167 255-255 0-99.826-57.371-186.239-140.931-228.107z" fill="url(#SVGID_6_)"/></g><g><g><path d="m399.26 465.29c-3.53 2.43-7.13 4.78-10.79 7.02-29.8 18.35-63.65 30.74-99.91 35.5l-136.03-136.03c-29.24-27.37-47.51-66.28-47.51-109.48 0-1.86.03-3.71.09-5.55.21-5.63 4.62-10.2 10.21-10.56l57.8-3.62c5.16-.33 9.44 2.95 10.93 7.51l92.2 92.18z" fill="url(#SVGID_7_)"/><path d="m505.1 305c-2.64 13.26-6.3 26.15-10.91 38.58-9.93 26.82-24.26 51.52-42.09 73.22-6.01 7.32-12.43 14.29-19.21 20.89l-126.6-126.6-71.6-71.6-32.26-32.26c-2.54-.85-4.78-2.63-6.13-5.28l-26.41-51.59c-2.53-4.98-.91-11.1 3.77-14.12 23.42-15.13 51.34-23.92 81.34-23.92s57.92 8.79 81.33 23.92z" fill="url(#SVGID_8_)"/><path d="m452.1 416.8c-6.01 7.32-12.43 14.29-19.21 20.89-7.64 7.45-15.74 14.41-24.27 20.85l-129.19-129.19-42.24-42.23c-7.72-5.53-12.74-14.6-12.74-24.82 0-9.08 3.96-17.23 10.24-22.81 5.4-4.83 12.52-7.75 20.31-7.75 10.23 0 19.27 5.04 24.81 12.76l41.82 41.81z" fill="url(#SVGID_9_)"/><path d="m494.19 343.58c-9.93 26.82-24.26 51.52-42.09 73.22-6.01 7.32-12.43 14.29-19.21 20.89-7.64 7.45-15.74 14.41-24.27 20.85-3.06 2.33-6.18 4.58-9.36 6.75-3.53 2.43-7.13 4.78-10.79 7.02l-75.24-75.35c-2.14-.81-4.04-2.3-5.34-4.37l-30.91-48.99c-.28-.43-.52-.88-.73-1.34-2.07-4.55-.63-9.81 3.18-12.91.83-.67 1.77-1.24 2.83-1.67.04-.02.09-.03.12-.05 9.09-3.84 17.23-9.5 23.91-16.54 6.72-7.04 11.98-15.46 15.34-24.78 2.71-7.51 4.19-15.58 4.19-24.01 0-2.44-.12-4.9-.39-7.33 0-.05 0-.09-.01-.15-.67-6.79 4.62-12.67 11.45-12.25l57.79 3.62c4.57.3 8.33 3.38 9.69 7.55z" fill="url(#SVGID_10_)"/></g><g><circle cx="254.997" cy="262.301" fill="url(#SVGID_11_)" r="30.552"/><path d="m340.092 150.355-26.397 51.61c-3.114 6.088-10.889 7.624-16.371 3.536-.037-.027-.073-.055-.11-.082-11.776-8.777-26.386-13.943-42.217-13.943s-30.441 5.166-42.217 13.943c-.037.027-.073.054-.11.082-5.482 4.087-13.257 2.551-16.371-3.537l-26.397-51.609c-2.54-4.967-.924-11.077 3.761-14.106 23.407-15.132 51.326-23.93 81.334-23.93s57.927 8.798 81.334 23.93c4.686 3.029 6.302 9.139 3.761 14.106z" fill="url(#SVGID_12_)"/><g><path d="m404.98 262.301c0 58.737-33.756 109.567-82.948 134.213-5.019 2.514-11.142.831-14.138-3.916l-30.924-48.989c-3.655-5.791-1.03-13.295 5.29-15.931.041-.017.082-.034.123-.052 25.497-10.721 43.439-35.94 43.439-65.326 0-2.444-.111-4.888-.389-7.333-.004-.046-.009-.091-.013-.137-.677-6.803 4.624-12.682 11.447-12.254l57.79 3.626c5.616.352 10.013 4.929 10.22 10.553.067 1.843.103 3.691.103 5.546z" fill="url(#SVGID_13_)"/><path d="m233.026 343.609-30.924 48.988c-2.996 4.747-9.12 6.431-14.138 3.916-49.192-24.646-82.948-75.476-82.948-134.213 0-1.855.035-3.703.103-5.545.207-5.624 4.603-10.2 10.22-10.553l57.79-3.626c6.823-.428 12.124 5.451 11.447 12.254-.005.046-.009.091-.013.137-.278 2.445-.389 4.889-.389 7.333 0 29.386 17.943 54.605 43.439 65.326.041.017.082.034.123.052 6.32 2.636 8.945 10.14 5.29 15.931z" fill="url(#SVGID_14_)"/></g></g></g></g></svg>