<svg id="Capa_1" enable-background="new 0 0 510 510" height="512" viewBox="0 0 510 510" width="512" xmlns="http://www.w3.org/2000/svg" xmlns:xlink="http://www.w3.org/1999/xlink"><linearGradient id="lg1"><stop offset="0" stop-color="#cdec7a"/><stop offset=".34" stop-color="#c1ea76"/><stop offset=".9563" stop-color="#a1e66b"/><stop offset="1" stop-color="#9ee66a"/></linearGradient><linearGradient id="SVGID_1_" gradientUnits="userSpaceOnUse" x1="60.322" x2="107.682" xlink:href="#lg1" y1="390.09" y2="390.09"/><linearGradient id="SVGID_2_" gradientUnits="userSpaceOnUse" x1="174.32" x2="221.681" xlink:href="#lg1" y1="390.09" y2="390.09"/><linearGradient id="SVGID_3_" gradientUnits="userSpaceOnUse" x1="288.319" x2="335.68" xlink:href="#lg1" y1="390.09" y2="390.09"/><linearGradient id="SVGID_4_" gradientUnits="userSpaceOnUse" x1="402.318" x2="449.678" xlink:href="#lg1" y1="390.09" y2="390.09"/><linearGradient id="SVGID_5_" gradientUnits="userSpaceOnUse" x1="117.321" x2="164.682" xlink:href="#lg1" y1="474.808" y2="474.808"/><linearGradient id="SVGID_6_" gradientUnits="userSpaceOnUse" x1="231.32" x2="278.68" xlink:href="#lg1" y1="474.808" y2="474.808"/><linearGradient id="SVGID_7_" gradientUnits="userSpaceOnUse" x1="345.318" x2="392.679" xlink:href="#lg1" y1="474.808" y2="474.808"/><linearGradient id="lg2"><stop offset="0" stop-color="#f9f7fc"/><stop offset="1" stop-color="#f0ddfc"/></linearGradient><linearGradient id="SVGID_8_" gradientUnits="userSpaceOnUse" x1="84.105" x2="37.654" xlink:href="#lg2" y1="228.754" y2="340.659"/><linearGradient id="SVGID_9_" gradientUnits="userSpaceOnUse" x1="411.299" x2="466.49" xlink:href="#lg2" y1="231.875" y2="287.065"/><linearGradient id="lg3"><stop offset="0" stop-color="#efdcfb" stop-opacity="0"/><stop offset=".4856" stop-color="#baaad6" stop-opacity=".486"/><stop offset="1" stop-color="#8679b2"/></linearGradient><linearGradient id="SVGID_10_" gradientUnits="userSpaceOnUse" x1="452.099" x2="601.699" xlink:href="#lg3" y1="264.204" y2="230.836"/><linearGradient id="SVGID_11_" gradientUnits="userSpaceOnUse" x1="98.478" x2="172.658" xlink:href="#lg2" y1="152.532" y2="226.712"/><linearGradient id="SVGID_12_" gradientUnits="userSpaceOnUse" x1="153.316" x2="354.39" xlink:href="#lg3" y1="195.985" y2="151.135"/><linearGradient id="SVGID_13_" gradientUnits="userSpaceOnUse" x1="338.488" x2="412.668" xlink:href="#lg2" y1="152.532" y2="226.712"/><linearGradient id="SVGID_14_" gradientUnits="userSpaceOnUse" x1="393.326" x2="594.4" xlink:href="#lg3" y1="195.985" y2="151.135"/><linearGradient id="SVGID_15_" gradientUnits="userSpaceOnUse" x1="198.709" x2="313.058" xlink:href="#lg2" y1="78.115" y2="192.464"/><linearGradient id="SVGID_16_" gradientUnits="userSpaceOnUse" x1="283.242" x2="593.198" xlink:href="#lg3" y1="145.097" y2="75.962"/><linearGradient id="SVGID_17_" gradientUnits="userSpaceOnUse" x1="158.208" x2="239.397" xlink:href="#lg2" y1="236.274" y2="317.462"/><linearGradient id="SVGID_18_" gradientUnits="userSpaceOnUse" x1="218.227" x2="438.298" xlink:href="#lg3" y1="283.832" y2="234.745"/><linearGradient id="SVGID_19_" gradientUnits="userSpaceOnUse" x1="341.247" x2="345.939" xlink:href="#lg2" y1="258.147" y2="363.249"/><linearGradient id="SVGID_20_" gradientUnits="userSpaceOnUse" x1="300.321" x2="107.107" xlink:href="#lg3" y1="332.22" y2="139.006"/><linearGradient id="SVGID_21_" gradientUnits="userSpaceOnUse" x1="385.844" x2="193.319" xlink:href="#lg3" y1="231.332" y2="38.807"/><linearGradient id="SVGID_22_" gradientUnits="userSpaceOnUse" x1="323.775" x2="199.446" xlink:href="#lg3" y1="250.598" y2="126.269"/><linearGradient id="SVGID_23_" gradientUnits="userSpaceOnUse" x1="429.197" x2="289.972" xlink:href="#lg3" y1="324.069" y2="184.844"/><linearGradient id="lg4"><stop offset="0" stop-color="#8a7889"/><stop offset="1" stop-color="#6e566e"/></linearGradient><linearGradient id="SVGID_24_" gradientUnits="userSpaceOnUse" x1="231.139" x2="278.861" xlink:href="#lg4" y1="181.822" y2="181.822"/><linearGradient id="SVGID_25_" gradientUnits="userSpaceOnUse" x1="187.605" x2="322.395" xlink:href="#lg4" y1="101.964" y2="101.964"/><linearGradient id="SVGID_26_" gradientUnits="userSpaceOnUse" x1="270.859" x2="372.137" xlink:href="#lg4" y1="226.976" y2="226.976"/><linearGradient id="SVGID_27_" gradientUnits="userSpaceOnUse" x1="137.863" x2="239.141" xlink:href="#lg4" y1="226.976" y2="226.976"/><g><g><g><path d="m107.682 401.475c0 13.148-10.602 23.807-23.68 23.807s-23.68-10.659-23.68-23.807 10.602-46.577 23.68-46.577 23.68 33.429 23.68 46.577z" fill="url(#SVGID_1_)"/><path d="m221.681 401.475c0 13.148-10.602 23.807-23.68 23.807s-23.68-10.659-23.68-23.807 10.602-46.577 23.68-46.577 23.68 33.429 23.68 46.577z" fill="url(#SVGID_2_)"/><path d="m335.68 401.475c0 13.148-10.602 23.807-23.68 23.807s-23.68-10.659-23.68-23.807 10.602-46.577 23.68-46.577 23.68 33.429 23.68 46.577z" fill="url(#SVGID_3_)"/><path d="m449.678 401.475c0 13.148-10.602 23.807-23.68 23.807s-23.68-10.659-23.68-23.807 10.602-46.577 23.68-46.577 23.68 33.429 23.68 46.577z" fill="url(#SVGID_4_)"/></g><g><path d="m164.682 486.193c0 13.148-10.602 23.807-23.68 23.807s-23.68-10.659-23.68-23.807 10.602-46.577 23.68-46.577 23.68 33.429 23.68 46.577z" fill="url(#SVGID_5_)"/><path d="m278.68 486.193c0 13.148-10.602 23.807-23.68 23.807s-23.68-10.659-23.68-23.807 10.602-46.577 23.68-46.577 23.68 33.429 23.68 46.577z" fill="url(#SVGID_6_)"/><path d="m392.679 486.193c0 13.148-10.602 23.807-23.68 23.807s-23.68-10.659-23.68-23.807 10.602-46.577 23.68-46.577 23.68 33.429 23.68 46.577z" fill="url(#SVGID_7_)"/></g></g><g><g><g><g><circle cx="71.532" cy="259.044" fill="url(#SVGID_8_)" r="64.871"/></g><g><circle cx="438.468" cy="259.044" fill="url(#SVGID_9_)" r="64.871"/><path d="m469.472 202.049c5.021 9.211 7.877 19.773 7.877 31.003 0 35.827-29.044 64.871-64.871 64.871-11.23 0-21.792-2.855-31.003-7.877 10.999 20.176 32.397 33.867 56.994 33.867 35.827 0 64.871-29.044 64.871-64.871-.001-24.596-13.692-45.994-33.868-56.993z" fill="url(#SVGID_10_)"/></g></g><g><g><circle cx="134.995" cy="189.049" fill="url(#SVGID_11_)" r="87.192"/><path d="m176.666 112.445c6.749 12.381 10.587 26.577 10.587 41.671 0 48.155-39.037 87.192-87.192 87.192-15.094 0-29.29-3.838-41.671-10.587 14.783 27.119 43.544 45.521 76.605 45.521 48.155 0 87.192-39.037 87.192-87.192 0-33.062-18.402-61.822-45.521-76.605z" fill="url(#SVGID_12_)"/></g><g><circle cx="375.005" cy="189.049" fill="url(#SVGID_13_)" r="87.192"/><path d="m416.676 112.445c6.749 12.381 10.587 26.577 10.587 41.671 0 48.155-39.037 87.192-87.192 87.192-15.094 0-29.29-3.838-41.671-10.587 14.783 27.119 43.544 45.521 76.605 45.521 48.155 0 87.192-39.037 87.192-87.192 0-33.062-18.402-61.822-45.521-76.605z" fill="url(#SVGID_14_)"/></g></g><g><circle cx="255" cy="134.406" fill="url(#SVGID_15_)" r="134.406"/><path d="m319.236 16.32c10.404 19.085 16.32 40.969 16.32 64.236 0 74.231-60.176 134.406-134.407 134.406-23.267 0-45.151-5.916-64.236-16.32 22.788 41.803 67.123 70.17 118.086 70.17 74.231 0 134.407-60.176 134.407-134.407 0-50.962-28.366-95.297-70.17-118.085z" fill="url(#SVGID_16_)"/></g><g><circle cx="198.175" cy="276.241" fill="url(#SVGID_17_)" r="95.429"/><path d="m243.783 192.399c7.387 13.551 11.587 29.088 11.587 45.608 0 52.704-42.725 95.429-95.429 95.429-16.52 0-32.057-4.2-45.608-11.587 16.18 29.681 47.658 49.821 83.842 49.821 52.704 0 95.429-42.725 95.429-95.429 0-36.184-20.14-67.662-49.821-83.842z" fill="url(#SVGID_18_)"/></g><g><circle cx="342.313" cy="282.035" fill="url(#SVGID_19_)" r="72.864"/></g></g><path d="m374.661 347.337c-3.216 1.602-6.574 2.963-10.042 4.072-7.024 2.272-14.52 3.49-22.301 3.49-25.297 0-47.566-12.885-60.637-32.453-5.981 10.81-14.004 20.326-23.552 28.041l-83.158-83.158c-22.828-21.379-37.107-51.769-37.107-85.506 0-1.449.022-2.897.077-4.335.165-4.39 3.6-7.968 7.979-8.242l45.14-2.832c4.028-.252 7.364 2.305 8.539 5.861l71.996 71.996z" fill="url(#SVGID_20_)"/><path d="m502.772 267.626c-1.35 10.273-5.114 19.777-10.69 27.953-11.688 17.11-31.345 28.337-53.613 28.337-2.941 0-5.839-.198-8.67-.582-8.22-1.098-15.936-3.742-22.883-7.617-1.811 3.457-3.885 6.75-6.212 9.856l-161.563-161.562-25.199-25.199c-1.986-.658-3.732-2.052-4.785-4.116l-20.622-40.3c-1.975-3.885-.713-8.659 2.941-11.019 18.284-11.82 40.092-18.69 63.523-18.69s45.239 6.87 63.523 18.69z" fill="url(#SVGID_21_)"/><path d="m429.799 323.335c-8.22-1.098-15.936-3.742-22.883-7.617-1.811 3.457-3.885 6.75-6.212 9.856-4.983 6.706-11.118 12.511-18.087 17.154l-141.522-141.523c-6.025-4.324-9.954-11.392-9.954-19.382 0-7.09 3.095-13.455 8.001-17.812 4.214-3.775 9.779-6.047 15.859-6.047 7.99 0 15.058 3.929 19.382 9.954l32.662 32.662z" fill="url(#SVGID_22_)"/><path d="m492.082 295.579c-11.688 17.11-31.345 28.337-53.613 28.337-2.941 0-5.839-.198-8.67-.582-8.22-1.098-15.936-3.742-22.883-7.617-1.811 3.457-3.885 6.75-6.212 9.856-4.983 6.706-11.118 12.511-18.087 17.154-2.546 1.701-5.202 3.238-7.957 4.609-3.216 1.602-6.574 2.963-10.042 4.072l-64.138-64.412c-1.668-.637-3.15-1.8-4.17-3.413l-24.145-38.259c-.22-.34-.406-.691-.571-1.054-1.613-3.556-.483-7.661 2.491-10.075.647-.527 1.383-.977 2.206-1.317.033-.011.066-.022.099-.033 7.101-2.996 13.455-7.419 18.668-12.918 5.246-5.498 9.362-12.073 11.985-19.349 2.118-5.861 3.271-12.171 3.271-18.756 0-1.91-.088-3.819-.307-5.729 0-.033 0-.066-.011-.11-.527-5.312 3.611-9.899 8.945-9.57l45.14 2.832c3.567.23 6.497 2.634 7.562 5.894z" fill="url(#SVGID_23_)"/><g><circle cx="255" cy="181.822" fill="url(#SVGID_24_)" r="23.861"/><path d="m321.46 94.391-20.616 40.307c-2.432 4.755-8.504 5.954-12.786 2.762-.029-.021-.057-.043-.086-.064-9.197-6.855-20.607-10.889-32.972-10.889-12.364 0-23.774 4.034-32.972 10.889-.029.021-.057.043-.086.064-4.282 3.192-10.354 1.993-12.786-2.762l-20.616-40.307c-1.984-3.879-.722-8.651 2.937-11.017 18.281-11.818 40.086-18.69 63.522-18.69s45.241 6.871 63.522 18.69c3.661 2.366 4.923 7.138 2.939 11.017z" fill="url(#SVGID_25_)"/><g><path d="m372.137 181.822c0 45.874-26.364 85.572-64.783 104.821-3.92 1.964-8.702.649-11.042-3.059l-24.152-38.26c-2.855-4.523-.805-10.384 4.132-12.442.032-.013.064-.027.096-.04 19.913-8.373 33.926-28.069 33.926-51.02 0-1.909-.087-3.818-.304-5.727-.003-.036-.007-.071-.011-.107-.529-5.313 3.612-9.905 8.94-9.57l45.135 2.832c4.386.275 7.82 3.85 7.982 8.242.054 1.438.081 2.881.081 4.33z" fill="url(#SVGID_26_)"/><path d="m237.84 245.324-24.152 38.26c-2.34 3.707-7.122 5.022-11.042 3.059-38.419-19.249-64.783-58.947-64.783-104.821 0-1.449.027-2.892.08-4.33.161-4.392 3.595-7.967 7.982-8.242l45.135-2.832c5.329-.334 9.469 4.258 8.94 9.571-.004.036-.007.071-.011.107-.217 1.909-.304 3.818-.304 5.727 0 22.95 14.013 42.647 33.926 51.02.032.013.064.027.096.04 4.938 2.057 6.988 7.919 4.133 12.441z" fill="url(#SVGID_27_)"/></g></g></g></g></svg>