<svg id="Capa_1" enable-background="new 0 0 510 510" height="512" viewBox="0 0 510 510" width="512" xmlns="http://www.w3.org/2000/svg" xmlns:xlink="http://www.w3.org/1999/xlink"><linearGradient id="lg1"><stop offset="0" stop-color="#ffd945"/><stop offset=".3043" stop-color="#ffcd3e"/><stop offset=".8558" stop-color="#ffad2b"/><stop offset="1" stop-color="#ffa325"/></linearGradient><linearGradient id="SVGID_1_" gradientUnits="userSpaceOnUse" x1="72.305" x2="437.695" xlink:href="#lg1" y1="275.034" y2="275.034"/><linearGradient id="lg2"><stop offset="0" stop-color="#e87264" stop-opacity="0"/><stop offset=".6519" stop-color="#f67150" stop-opacity=".652"/><stop offset="1" stop-color="#ff7044"/></linearGradient><linearGradient id="SVGID_2_" gradientUnits="userSpaceOnUse" x1="311.052" x2="60.136" xlink:href="#lg2" y1="304.42" y2="513.322"/><linearGradient id="SVGID_3_" gradientUnits="userSpaceOnUse" x1="344.933" x2="361.305" y1="6.818" y2="50.24"><stop offset="0" stop-color="#ff7044"/><stop offset=".2346" stop-color="#fe653c"/><stop offset=".6509" stop-color="#fb4628"/><stop offset="1" stop-color="#f82814"/></linearGradient><linearGradient id="lg3"><stop offset="0" stop-color="#f82814" stop-opacity="0"/><stop offset=".1249" stop-color="#ed2819" stop-opacity=".125"/><stop offset=".4524" stop-color="#d42724" stop-opacity=".452"/><stop offset=".7531" stop-color="#c5272b" stop-opacity=".753"/><stop offset="1" stop-color="#c0272d"/></linearGradient><linearGradient id="SVGID_4_" gradientUnits="userSpaceOnUse" x1="345.603" x2="363.003" xlink:href="#lg3" y1="-3.874" y2="74.149"/><linearGradient id="SVGID_5_" gradientTransform="matrix(-1 0 0 1 3972.398 -30.476)" gradientUnits="userSpaceOnUse" x1="3614.24" x2="3628.934" xlink:href="#lg3" y1="31.349" y2="97.236"/><linearGradient id="SVGID_6_" gradientUnits="userSpaceOnUse" x1="255" x2="255" xlink:href="#lg2" y1="127.597" y2="15.694"/><linearGradient id="lg4"><stop offset="0" stop-color="#8a7889"/><stop offset="1" stop-color="#6e566e"/></linearGradient><linearGradient id="SVGID_7_" gradientUnits="userSpaceOnUse" x1="255" x2="255" xlink:href="#lg4" y1="41.236" y2="74.1"/><linearGradient id="SVGID_8_" gradientUnits="userSpaceOnUse" x1="255" x2="255" xlink:href="#lg2" y1="146.27" y2="114.219"/><linearGradient id="SVGID_9_" gradientUnits="userSpaceOnUse" x1="255" x2="255" xlink:href="#lg4" y1="92.975" y2="125.839"/><linearGradient id="SVGID_10_" gradientUnits="userSpaceOnUse" x1="255" x2="255" xlink:href="#lg2" y1="507.277" y2="395.374"/><linearGradient id="SVGID_11_" gradientUnits="userSpaceOnUse" x1="255" x2="255" xlink:href="#lg4" y1="420.915" y2="453.78"/><linearGradient id="SVGID_12_" gradientUnits="userSpaceOnUse" x1="255" x2="255" xlink:href="#lg4" y1="472.654" y2="505.519"/><linearGradient id="SVGID_13_" gradientUnits="userSpaceOnUse" x1="228.91" x2="277.517" xlink:href="#lg1" y1="254.142" y2="302.749"/><linearGradient id="SVGID_14_" gradientUnits="userSpaceOnUse" x1="233.259" x2="276.742" xlink:href="#lg4" y1="280.232" y2="280.232"/><linearGradient id="SVGID_15_" gradientUnits="userSpaceOnUse" x1="193.593" x2="316.408" xlink:href="#lg4" y1="207.469" y2="207.469"/><linearGradient id="SVGID_16_" gradientUnits="userSpaceOnUse" x1="269.45" x2="361.731" xlink:href="#lg4" y1="321.374" y2="321.374"/><linearGradient id="SVGID_17_" gradientUnits="userSpaceOnUse" x1="148.269" x2="240.55" xlink:href="#lg4" y1="321.374" y2="321.374"/><g><path d="m72.305 53.295h365.39v443.478h-365.39z" fill="url(#SVGID_1_)"/><path d="m255 53.295h182.695v443.478h-182.695z" fill="url(#SVGID_2_)"/><g><path d="m401.808 0h-98.797c-7.358 0-13.324 5.965-13.324 13.324v26.648c0 7.358 5.965 13.324 13.324 13.324h98.797c7.358 0 13.324-5.965 13.324-13.324v-26.648c0-7.359-5.965-13.324-13.324-13.324z" fill="url(#SVGID_3_)"/><path d="m384.982 0h-65.145c-6.142 0-11.12 4.979-11.12 11.12v31.055c0 6.142 4.979 11.12 11.12 11.12h65.145c6.142 0 11.12-4.979 11.12-11.12v-31.055c0-6.141-4.978-11.12-11.12-11.12z" fill="url(#SVGID_4_)"/><path d="m343.191 0h18.438c3.709 0 6.716 3.007 6.716 6.716v39.864c0 3.709-3.007 6.716-6.716 6.716h-18.438c-3.709 0-6.716-3.007-6.716-6.716v-39.864c0-3.709 3.007-6.716 6.716-6.716z" fill="url(#SVGID_5_)"/></g><g><g><g><path d="m437.695 52.906h-365.39v21.692l36.446 36.445h328.944z" fill="url(#SVGID_6_)"/><path d="m425.973 78.581h-341.946c-10.635 0-19.256-8.621-19.256-19.256 0-10.635 8.621-19.256 19.256-19.256h341.945c10.635 0 19.256 8.621 19.256 19.256.001 10.635-8.62 19.256-19.255 19.256z" fill="url(#SVGID_7_)"/></g><g><path d="m437.695 104.645h-365.39v21.692l36.446 36.445h328.944z" fill="url(#SVGID_8_)"/><path d="m425.973 130.32h-341.946c-10.635 0-19.256-8.621-19.256-19.256 0-10.635 8.621-19.256 19.256-19.256h341.945c10.635 0 19.256 8.621 19.256 19.256.001 10.635-8.62 19.256-19.255 19.256z" fill="url(#SVGID_9_)"/></g></g><g><g><path d="m437.695 432.586h-365.39v21.691l36.446 36.446h328.944z" fill="url(#SVGID_10_)"/><path d="m425.973 458.261h-341.946c-10.635 0-19.256-8.621-19.256-19.256 0-10.635 8.621-19.256 19.256-19.256h341.945c10.635 0 19.256 8.621 19.256 19.256.001 10.635-8.62 19.256-19.255 19.256z" fill="url(#SVGID_11_)"/></g><g><path d="m425.973 510h-341.946c-10.635 0-19.256-8.621-19.256-19.256 0-10.635 8.621-19.256 19.256-19.256h341.945c10.635 0 19.256 8.621 19.256 19.256.001 10.635-8.62 19.256-19.255 19.256z" fill="url(#SVGID_12_)"/></g></g></g><g><circle cx="255" cy="280.232" fill="url(#SVGID_13_)" r="34.687"/><g><circle cx="255" cy="280.232" fill="url(#SVGID_14_)" r="21.741"/><path d="m315.556 200.568-18.785 36.727c-2.216 4.332-7.749 5.425-11.65 2.517-.026-.019-.052-.039-.078-.058-8.38-6.246-18.777-9.922-30.043-9.922s-21.662 3.676-30.043 9.922c-.026.019-.052.039-.078.058-3.901 2.909-9.434 1.816-11.65-2.517l-18.784-36.726c-1.808-3.535-.658-7.882 2.676-10.038 16.657-10.769 36.525-17.029 57.879-17.029s41.222 6.261 57.879 17.029c3.334 2.155 4.484 6.503 2.677 10.037z" fill="url(#SVGID_15_)"/><g><path d="m361.731 280.232c0 41.799-24.022 77.97-59.028 95.509-3.571 1.789-7.929.591-10.061-2.787l-22.006-34.861c-2.601-4.121-.733-9.461 3.765-11.337.029-.012.059-.024.088-.037 18.144-7.629 30.912-25.576 30.912-46.487 0-1.739-.079-3.479-.277-5.218-.003-.033-.006-.065-.01-.097-.482-4.841 3.291-9.025 8.146-8.72l41.125 2.581c3.997.251 7.126 3.508 7.273 7.51.048 1.309.073 2.624.073 3.944z" fill="url(#SVGID_16_)"/><path d="m239.364 338.093-22.006 34.861c-2.132 3.378-6.49 4.576-10.061 2.787-35.006-17.539-59.028-53.71-59.028-95.509 0-1.32.025-2.635.073-3.946.147-4.002 3.276-7.259 7.273-7.51l41.125-2.581c4.855-.305 8.628 3.879 8.146 8.72-.003.032-.006.065-.01.097-.198 1.74-.277 3.479-.277 5.218 0 20.911 12.768 38.858 30.912 46.487.029.012.059.024.088.037 4.499 1.877 6.367 7.218 3.765 11.339z" fill="url(#SVGID_17_)"/></g></g></g></g></svg>